<svg xmlns="http://www.w3.org/2000/svg" xmlns:xlink="http://www.w3.org/1999/xlink" viewBox="0 0 50 50" fill="#5B5B5B">
  <path d="M25 2C12.264481 2 2 12.264481 2 25C2 37.735519 12.264481 48 25 48C37.735519 48 48 37.735519 48 25C48 12.264481 37.735519 2 25 2 z M 25 4C36.664481 4 46 13.335519 46 25C46 36.664481 36.664481 46 25 46C13.335519 46 4 36.664481 4 25C4 13.335519 13.335519 4 25 4 z M 25 11 A 3 3 0 0 0 25 17 A 3 3 0 0 0 25 11 z M 21 21L21 23L23 23L23 36L21 36L21 38L29 38L29 36L27 36L27 21L21 21 z" fill="#fff" />
</svg>